<?xml version="1.0" encoding="UTF-8"?>
<svg xmlns="http://www.w3.org/2000/svg" xmlns:xlink="http://www.w3.org/1999/xlink" width="512" height="512" viewBox="0 0 53 58" version="1.1"><!-- Generator: Sketch 51.3 (57544) - http://www.bohemiancoding.com/sketch --><title>050 - Human Brain</title><desc>Created with Sketch.</desc><defs/><g id="Page-1" stroke="none" stroke-width="1" fill="none" fill-rule="evenodd"><g id="050---Human-Brain" fill-rule="nonzero"><path d="M18.72,50.3 C22.149,51.851 23.652,58 23.652,58 L48.746,57.931 C48.2755957,56.9544122 47.7410951,56.0100165 47.146,55.104 C46.6725523,54.1351747 46.2756732,53.1307732 45.959,52.1 C45.3713088,50.1113891 44.9643241,48.073788 44.743,46.012 C44.3709743,42.844112 44.8486519,39.634284 46.127,36.712 C47.254,34.142 49.211,32.106 50.703,29.753 C52.1821574,27.4555352 52.9787015,24.7853611 53,22.053 C53.056116,19.285616 52.7166887,16.5244021 51.992,13.853 C51.0439103,10.6166836 49.0658224,7.77805373 46.358,5.768 C41.4,1.88 36.342,-0.294 29.938,0.032 C26.7328989,0.255128449 23.5484062,0.712347803 20.41,1.4 C16.992,2.088 13.373,3.366 10.92,5.956 C9.24666038,7.74409793 7.95386958,9.85338818 7.12,12.156 C6.72915176,13.3014161 6.41118297,14.470419 6.168,15.656 C5.75858569,16.9487526 5.26451756,18.2131528 4.689,19.441 C4.5196763,19.814028 4.44579184,20.2233135 4.474,20.632 C4.666,22.016 6.742,22.611 6.759,24.038 C6.73675722,24.3532587 6.63974717,24.6586861 6.476,24.929 C5.25897289,27.4999033 3.76549632,29.930575 2.022,32.178 C1.61,32.683 0.774,33.678 0.878,34.392 C0.952,34.899 1.56,35.32 1.935,35.599 C2.735,36.193 4.364,36.599 4.567,37.671 C4.67208167,38.2169291 4.60607672,38.7819874 4.378,39.289 C3.825,40.456 3.212,41.078 3.647,41.444 C4.082,41.81 5.247,42.689 5.247,42.689 C5.247,42.689 4.14,44.103 4.753,44.537 C5.513,45.077 6.481,45.326 6.739,46.337 C6.81580147,47.1381317 6.73563877,47.9465522 6.503,48.717 C6.42489413,49.4709685 6.52349984,50.2327661 6.791,50.942 C7.15504357,52.3575719 8.57041671,53.2344064 10,52.93 C12.9521039,52.2117262 15.8630511,51.3337685 18.72,50.3" id="Shape" fill="#35495E"/><path d="M39.672,42.45 C38.4378166,42.4497236 37.3262845,41.703302 36.859,40.561 C36.587,39.902 35.614,38.961 33.8,37.6 C30.864,35.4 30.117,31.465 31.8,27.073 L32.4,25.522 L49.123,28.6 L45.849,31.88 L45.833,31.88 C44.355,33.383 43,35.126 43,37 C43.0164904,38.1689663 42.8397786,39.3326289 42.477,40.444 C42.0764608,41.6483941 40.9462245,42.4581277 39.677,42.45 L39.672,42.45 Z" id="Shape" fill="#2C3E50"/><path d="M40.8,32.858 C39.6030661,32.8607566 38.413839,32.6664937 37.28,32.283 C36.4748802,32.0104528 35.7014275,31.6520562 34.973,31.214 C33.2144113,30.0936321 31.5994256,28.7624192 30.164,27.25 C29.4324082,26.5083402 28.5107195,25.9824518 27.5,25.73 C26.9722155,25.6070273 26.4343265,25.5323856 25.893,25.507 C25.693,25.496 25.469,25.491 25.244,25.491 C23.0186677,25.5779513 20.8015084,25.8117936 18.607,26.191 L17.246,26.391 C16.6496683,26.4753463 16.0482631,26.5187811 15.446,26.521 C15.257,26.521 15.073,26.521 14.896,26.507 C14.0116505,26.4863496 13.1368215,26.3194259 12.307,26.013 C9.88724025,25.0895436 8.20682398,22.8659429 7.979,20.286 L7.958,20.144 C7.85184477,19.3850637 7.83037964,18.616679 7.894,17.853 C7.91853809,17.2788823 7.99146331,16.7078578 8.112,16.146 C8.138,16.032 8.529,14.37 8.834,13.362 C8.904,13.137 8.951,12.987 8.998,12.857 C9.239,12.218 9.487,11.641 9.742,11.12 C10.4279573,9.73021761 11.3159199,8.44966439 12.377,7.32 C13.468227,6.22350097 14.7654173,5.35349641 16.194,4.76 C16.9040538,4.44837747 17.6327924,4.18119557 18.376,3.96 C19.161,3.725 19.976,3.521 20.808,3.355 C21.733,3.164 22.702,2.98 23.682,2.807 C24.291,2.694 24.925,2.591 25.558,2.498 C26.295,2.385 27.032,2.292 27.779,2.209 C28.501,2.133 29.199,2.07 29.898,2.038 C29.941,2.038 29.998,2.03 30.059,2.027 C30.446,2.01 30.834,2 31.21,2 C31.51,2 31.801,2.011 32.085,2.021 C32.8279677,2.04632447 33.5686874,2.11712364 34.303,2.233 C36.4775511,2.57331726 38.5790668,3.27821754 40.519,4.318 C41.046,4.588 41.558,4.88 42.064,5.203 C42.7746667,5.631 43.5556667,6.16433333 44.407,6.803 C44.645,6.978 44.879,7.158 45.123,7.35 C45.5772543,7.69483325 46.0085052,8.06896262 46.414,8.47 C48.1549151,10.0718689 49.4185531,12.1242856 50.065,14.4 C50.4654007,15.8418927 50.7331811,17.3173629 50.865,18.808 C50.936,19.581 50.975,20.286 50.985,20.973 C51,21.29 51,21.64 51,22 C50.996751,22.4159355 50.9690364,22.8313196 50.917,23.244 C50.8450168,24.0530853 50.6819859,24.8514673 50.431,25.624 C50.1003533,26.7004137 49.6260809,27.7273312 49.021,28.677 C47.9204846,30.3524751 46.3153866,31.634312 44.438,32.337 C43.2529477,32.6720226 42.0284517,32.8472388 40.797,32.858 L40.8,32.858 Z" id="Shape" fill="#2C3E50"/><path d="M33.67,27.79 C33.01,29.51 31.89,33.67 35,36 C37.328,37.746 38.3,38.815 38.708,39.8 C38.8527158,40.1933506 39.2273731,40.4547208 39.6465,40.4547208 C40.0656269,40.4547208 40.4402842,40.1933506 40.585,39.8 C40.8776506,38.8961386 41.0178983,37.9498891 41,37 C41,34.12 43.08,31.75 44.99,29.9 C45,29.9 45.01,29.89 45.02,29.88 L33.67,27.79 Z" id="Shape" fill="#DF4D60"/><path d="M48.99,21 C48.98,20.32 48.94,19.65 48.88,19 C48.7571575,17.627 48.5094669,16.2680487 48.14,14.94 C47.5867325,12.9930522 46.4989377,11.240109 45,9.88 C44.6506332,9.53689242 44.2798915,9.21625091 43.89,8.92 C43.66,8.74 43.44,8.57 43.21,8.4 C42.46,7.84 41.72,7.33 40.99,6.89 C40.52,6.59 40.06,6.33 39.59,6.09 C37.8457658,5.15316372 35.9558682,4.51756309 34,4.21 C33.3412224,4.1056673 32.6766182,4.04221264 32.01,4.02 C31.75,4.01 31.48,4 31.21,4 C30.86,4 30.5,4.01 30.14,4.03 C30.09,4.03 30.04,4.04 29.99,4.04 C29.33,4.07 28.67,4.13 28,4.2 C27.28,4.28 26.57,4.37 25.85,4.48 C25.24,4.57 24.63,4.67 24.03,4.78 C23.07,4.95 22.12,5.13 21.2,5.32 C20.4,5.48 19.65,5.67 18.95,5.88 C18.2861196,6.07664984 17.6349014,6.31376005 17,6.59 C15.8111949,7.07668428 14.7304399,7.79378903 13.82,8.7 C12.8974109,9.68048824 12.1256486,10.7926348 11.53,12 C11.29,12.49 11.07,13.01 10.87,13.54 C10.83,13.65 10.79,13.78 10.74,13.94 C10.45,14.9 10.06,16.56 10.06,16.56 C9.95944741,17.037431 9.89923511,17.5224744 9.88,18.01 C9.82403126,18.6704236 9.84753267,19.3351777 9.95,19.99 L9.95,20 C10.0810688,21.8534968 11.2686319,23.4654676 13,24.14 C13.6380149,24.3736036 14.3106582,24.498668 14.99,24.51 C15.6483493,24.5384457 16.3079152,24.5049652 16.96,24.41 C19.9418755,23.8508064 22.9664042,23.5496919 26,23.51 C26.6671412,23.5429303 27.3298875,23.636652 27.98,23.79 C29.3365713,24.126419 30.574846,24.8285692 31.56,25.82 C32.8874203,27.219906 34.3780833,28.4554104 36,29.5 C38.3746087,30.9409226 41.2599697,31.2732869 43.9,30.41 C45.2983586,29.8419313 46.4934805,28.8663216 47.33,27.61 C47.8468647,26.7986377 48.2505894,25.9205365 48.53,25 C48.7398104,24.3543593 48.8740403,23.6865655 48.93,23.01 C48.9735614,22.6750412 48.9969369,22.3377656 49,22 C49,21.66 49,21.33 48.99,21 Z" id="Shape" fill="#FB7B76"/><path d="M15,17 C14.9950578,18.6548028 13.6548028,19.9950578 12,20 L9.95,20 L9.95,19.99 C9.84753267,19.3351777 9.82403126,18.6704236 9.88,18.01 C9.91943229,18.0017152 9.95974034,17.9983562 10,18 L12,18 C12.5522847,18 13,17.5522847 13,17 C13,16.4477153 13.4477153,16 14,16 C14.5522847,16 15,16.4477153 15,17 Z" id="Shape" fill="#FF5364"/><path d="M15,23 L15,24.41 C15.0016387,24.4436447 14.9982685,24.4773461 14.99,24.51 C14.3106582,24.498668 13.6380149,24.3736036 13,24.14 L13,23 C13,22.4477153 13.4477153,22 14,22 C14.5522847,22 15,22.4477153 15,23 Z" id="Shape" fill="#FF5364"/><path d="M21,21 L20,21 C18.3431458,21 17,19.6568542 17,18 L17,17 C17,15.3431458 18.3431458,14 20,14 L21,14 C21.5522847,14 22,14.4477153 22,15 C22,15.5522847 21.5522847,16 21,16 L20,16 C19.4477153,16 19,16.4477153 19,17 L19,18 C19,18.5522847 19.4477153,19 20,19 L21,19 C21.5522847,19 22,19.4477153 22,20 C22,20.5522847 21.5522847,21 21,21 Z" id="Shape" fill="#FF5364"/><path d="M16,13 C16,13.5522847 15.5522847,14 15,14 L11.08,14 C10.963998,14.0004065 10.8488561,13.9800873 10.74,13.94 C10.79,13.78 10.83,13.65 10.87,13.54 C11.07,13.01 11.29,12.49 11.53,12 L15,12 C15.5522847,12 16,12.4477153 16,13 Z" id="Shape" fill="#FF5364"/><path d="M21,11 C21,11.5522847 20.5522847,12 20,12 C18.3451972,11.9950578 17.0049422,10.6548028 17,9 L17,6.59 C17.6349014,6.31376005 18.2861196,6.07664984 18.95,5.88 C18.981979,5.98027453 18.9988309,6.08475614 19,6.19 L19,9 C19,9.55228475 19.4477153,10 20,10 C20.5522847,10 21,10.4477153 21,11 Z" id="Shape" fill="#FF5364"/><path d="M25,19 L24,19 C23.4477153,19 23,18.5522847 23,18 C23,17.4477153 23.4477153,17 24,17 L25,17 C25.5522847,17 26,16.5522847 26,16 L26,14 C26,13.4477153 26.4477153,13 27,13 C27.5522847,13 28,13.4477153 28,14 L28,16 C28,17.6568542 26.6568542,19 25,19 Z" id="Shape" fill="#FF5364"/><path d="M30,14 C29.4477153,14 29,13.5522847 29,13 L29,12 C29,11.4477153 28.5522847,11 28,11 L26,11 C25.4477153,11 25,11.4477153 25,12 L25,13 C25,13.5522847 24.5522847,14 24,14 C23.4477153,14 23,13.5522847 23,13 L23,12 C23,10.3431458 24.3431458,9 26,9 L28,9 C29.6568542,9 31,10.3431458 31,12 L31,13 C31,13.5522847 30.5522847,14 30,14 Z" id="Shape" fill="#FF5364"/><path d="M26,5 L26,6 C26,6.55228475 25.5522847,7 25,7 C24.4477153,7 24,6.55228475 24,6 L24,5 C23.9994578,4.92561128 24.0095602,4.85152754 24.03,4.78 C24.63,4.67 25.24,4.57 25.85,4.48 C25.9503889,4.63465571 26.0025951,4.81563738 26,5 Z" id="Shape" fill="#FF5364"/><path d="M30,4.1 L30,6 C30,6.55228475 29.5522847,7 29,7 C28.4477153,7 28,6.55228475 28,6 L28,4.2 C28.67,4.13 29.33,4.07 29.99,4.04 C29.9981444,4.05889467 30.0015762,4.07948523 30,4.1 Z" id="Shape" fill="#FF5364"/><path d="M36,9 C36,9.55228475 35.5522847,10 35,10 L33,10 C32.4477153,10 32,9.55228475 32,9 L32,4.09 C31.9983902,4.06622368 32.0017972,4.04237451 32.01,4.02 C32.6766182,4.04221264 33.3412224,4.1056673 34,4.21 L34,8 L35,8 C35.5522847,8 36,8.44771525 36,9 Z" id="Shape" fill="#FF5364"/><path d="M28,22 L28,23.6 C27.9988162,23.663791 27.9921246,23.7273606 27.98,23.79 C27.3298875,23.636652 26.6671412,23.5429303 26,23.51 L26,22 C26,21.4477153 26.4477153,21 27,21 C27.5522847,21 28,21.4477153 28,22 Z" id="Shape" fill="#FF5364"/><path d="M34,22 L33,22 C31.3431458,22 30,20.6568542 30,19 L30,18 C30,17.4477153 30.4477153,17 31,17 C31.5522847,17 32,17.4477153 32,18 L32,19 C32,19.5522847 32.4477153,20 33,20 L34,20 C34.5522847,20 35,20.4477153 35,21 C35,21.5522847 34.5522847,22 34,22 Z" id="Shape" fill="#FF5364"/><path d="M38,18 L37,18 C35.3431458,18 34,16.6568542 34,15 C34,13.3431458 35.3431458,12 37,12 L38,12 C38.5522847,12 39,12.4477153 39,13 C39,13.5522847 38.5522847,14 38,14 L37,14 C36.4477153,14 36,14.4477153 36,15 C36,15.5522847 36.4477153,16 37,16 L38,16 C38.5522847,16 39,16.4477153 39,17 C39,17.5522847 38.5522847,18 38,18 Z" id="Shape" fill="#FF5364"/><path d="M41,7 L41,10 C41,10.5522847 40.5522847,11 40,11 C39.4477153,11 39,10.5522847 39,10 L39,7 C39.0008198,6.60710057 39.231641,6.25108826 39.59,6.09 C40.06,6.33 40.52,6.59 40.99,6.89 C40.9987446,6.92597207 41.0021145,6.96304074 41,7 Z" id="Shape" fill="#FF5364"/><path d="M45,9.88 L45,12 C44.9950578,13.6548028 43.6548028,14.9950578 42,15 C41.4477153,15 41,14.5522847 41,14 C41,13.4477153 41.4477153,13 42,13 C42.5522847,13 43,12.5522847 43,12 L43,9.01 C43.0006878,8.78905055 43.0745323,8.57454984 43.21,8.4 C43.44,8.57 43.66,8.74 43.89,8.92 C44.2798915,9.21625091 44.6506332,9.53689242 45,9.88 Z" id="Shape" fill="#FF5364"/><path d="M40,23 L39,23 C38.4477153,23 38,22.5522847 38,22 C38,21.4477153 38.4477153,21 39,21 L40,21 C40.5522847,21 41,20.5522847 41,20 L41,18 C41,17.4477153 41.4477153,17 42,17 C42.5522847,17 43,17.4477153 43,18 L43,20 C43,21.6568542 41.6568542,23 40,23 Z" id="Shape" fill="#FF5364"/><path d="M43,26 C43,26.5522847 42.5522847,27 42,27 L39,27 C38.4477153,27 38,27.4477153 38,28 L38,30 C37.9995799,30.1340313 37.9723807,30.2666273 37.92,30.39 C37.2499704,30.1629577 36.6062758,29.8645785 36,29.5 L36,28 C36.0049422,26.3451972 37.3451972,25.0049422 39,25 L42,25 C42.2652165,25 42.5195704,25.1053568 42.7071068,25.2928932 C42.8946432,25.4804296 43,25.7347835 43,26 Z" id="Shape" fill="#FF5364"/><path d="M48.99,21 L46,21 C45.4477153,21 45,20.5522847 45,20 C45,19.4477153 45.4477153,19 46,19 L48.88,19 C48.94,19.65 48.98,20.32 48.99,21 Z" id="Shape" fill="#FF5364"/><path d="M48.93,23.01 C48.8740403,23.6865655 48.7398104,24.3543593 48.53,25 L46,25 C45.4477153,25 45,24.5522847 45,24 C45,23.4477153 45.4477153,23 46,23 L48.79,23 C48.8368954,22.9979798 48.8838679,23.001335 48.93,23.01 Z" id="Shape" fill="#FF5364"/></g></g></svg>
